# xmcd
#
# Track frame offsets:
#	150
#	17012
#	33015
#	53270
#	68877
#	96060
#	111132
#	132885
#	145185
#	164710
#	180652
#	200735
#	220552
#
# Disc length: 3171 seconds
#
# Revision: 9
# Processed by: cddbd v1.5.2PL0 Copyright (c) Steve Scherf et al.
# Submitted via: EZCDAudioConverter 2.1.7.1
#
DISCID=ad0c610d
DTITLE=V/A - Strange Days
DYEAR=1995
DGENRE=
TTITLE0=Skunk Anansie - Selling Jesus
TTITLE1=Lords Of Acid - The Real Thing
TTITLE2=Tricky - Overcome
TTITLE3=Deep Forest - Coral Lounge
TTITLE4=Strange Fruit - No White Clouds
TTITLE5=Juliette Lewis - Hardly Wait
TTITLE6=ME PHI ME and Jeriko One - hereWEcome
TTITLE7=Skunk Anansie - Feed
TTITLE8=Prong featuring Ray Manzarek - Strange Days
TTITLE9=Satchel - Walk In Freedom
TTITLE10=Kate Gibson - Dance Me To The End Of Love
TTITLE11=Lori Carson and Graeme Revell - Fall In The Light
TTITLE12=Peter Gabriel and Deep Forest - While The Earth Sleeps
EXTD=
EXTT0=
EXTT1=
EXTT2=
EXTT3=
EXTT4=
EXTT5=
EXTT6=
EXTT7=
EXTT8=
EXTT9=
EXTT10=
EXTT11=
EXTT12=
PLAYORDER=
